<?xml version="1.0" encoding="UTF-8"?>
<!DOCTYPE svg PUBLIC "-//W3C//DTD SVG 1.1//EN" "http://www.w3.org/Graphics/SVG/1.1/DTD/svg11.dtd">
<svg xmlns="http://www.w3.org/2000/svg" version="1.1" width="2759px" height="939px" style="shape-rendering:geometricPrecision; text-rendering:geometricPrecision; image-rendering:optimizeQuality; fill-rule:evenodd; clip-rule:evenodd" xmlns:xlink="http://www.w3.org/1999/xlink">
<g><path style="opacity:0.91" fill="#1f181a" d="M 2017.5,118.5 C 2030.23,120.514 2042.9,123.181 2055.5,126.5C 2066.93,128.192 2078.1,130.859 2089,134.5C 2090.23,134.355 2091.39,134.022 2092.5,133.5C 2093.7,133.846 2093.7,134.346 2092.5,135C 2103.35,136.306 2113.85,138.806 2124,142.5C 2125.73,141.424 2127.56,141.257 2129.5,142C 2129.17,142.333 2128.83,142.667 2128.5,143C 2158.02,149.048 2187.35,155.715 2216.5,163C 2226.13,164.747 2235.8,166.413 2245.5,168C 2245.17,168.333 2244.83,168.667 2244.5,169C 2257.19,171.023 2269.86,173.023 2282.5,175C 2287.05,176.846 2292.39,178.18 2298.5,179C 2313.77,181.085 2329.1,182.752 2344.5,184C 2344.17,184.333 2343.83,184.667 2343.5,185C 2352.93,185.053 2362.27,185.72 2371.5,187C 2382.17,187.667 2392.83,187.667 2403.5,187C 2411.4,185.73 2419.4,185.063 2427.5,185C 2427.17,184.667 2426.83,184.333 2426.5,184C 2427.83,183.667 2429.17,183.333 2430.5,183C 2442.87,182.293 2454.87,180.46 2466.5,177.5C 2467.28,182.516 2468.28,187.516 2469.5,192.5C 2470.09,192.709 2470.59,193.043 2471,193.5C 2475.63,238.488 2475.63,283.488 2471,328.5C 2469.16,332.7 2467.83,337.034 2467,341.5C 2465.21,350.394 2463.87,359.394 2463,368.5C 2462.59,368.957 2462.09,369.291 2461.5,369.5C 2459.1,378.518 2456.93,387.518 2455,396.5C 2451.28,404.021 2448.62,412.021 2447,420.5C 2444.74,424.325 2442.74,428.325 2441,432.5C 2436.71,442.943 2432.71,453.609 2429,464.5C 2426.68,468.207 2424.51,472.04 2422.5,476C 2423.46,477.147 2423.12,478.147 2421.5,479C 2419.87,479.494 2418.2,479.66 2416.5,479.5C 2418.09,474.193 2419.59,468.86 2421,463.5C 2421.33,463.833 2421.67,464.167 2422,464.5C 2423.82,456.67 2425.15,448.67 2426,440.5C 2428.5,432.91 2430.5,425.243 2432,417.5C 2433.07,409.306 2434.07,401.306 2435,393.5C 2435.33,393.833 2435.67,394.167 2436,394.5C 2437.95,376.803 2439.95,359.136 2442,341.5C 2442.5,324.17 2442.67,306.837 2442.5,289.5C 2443.17,288.833 2443.83,288.167 2444.5,287.5C 2445.16,285.19 2445.5,282.69 2445.5,280C 2445.61,275.573 2444.94,271.406 2443.5,267.5C 2443.92,263.183 2443.25,259.183 2441.5,255.5C 2441.8,251.21 2441.14,247.21 2439.5,243.5C 2439.07,240.99 2438.41,238.657 2437.5,236.5C 2437.5,235.167 2437.5,233.833 2437.5,232.5C 2427.66,232.872 2418,233.539 2408.5,234.5C 2406.59,234.216 2404.92,234.549 2403.5,235.5C 2398.68,236.166 2393.68,236.499 2388.5,236.5C 2375.83,236.101 2363.16,235.601 2350.5,235C 2351.17,234.667 2351.83,234.333 2352.5,234C 2326.84,232.481 2301.18,230.481 2275.5,228C 2270.29,226.123 2264.95,224.789 2259.5,224C 2247.89,222.302 2236.22,220.969 2224.5,220C 2224.04,219.586 2223.71,219.086 2223.5,218.5C 2210.25,216.155 2196.92,213.988 2183.5,212C 2182.33,211.581 2181.33,210.915 2180.5,210C 2171.8,208.095 2163.13,206.595 2154.5,205.5C 2133.06,199.805 2111.4,194.472 2089.5,189.5C 2087.96,188.086 2086.29,187.753 2084.5,188.5C 2081.36,186.978 2078.03,186.145 2074.5,186C 2073.83,185.333 2073.17,184.667 2072.5,184C 2067.28,182.624 2062.11,181.124 2057,179.5C 2055.27,180.576 2053.44,180.743 2051.5,180C 2051.83,179.667 2052.17,179.333 2052.5,179C 2044.24,177.369 2036.24,174.869 2028.5,171.5C 2027.23,172.428 2025.9,172.595 2024.5,172C 2024.83,171.667 2025.17,171.333 2025.5,171C 2021.17,170 2016.83,169 2012.5,168C 2011.83,167.333 2011.17,166.667 2010.5,166C 1997.46,163.393 1984.8,159.893 1972.5,155.5C 1971.83,155.833 1971.17,156.167 1970.5,156.5C 1964.9,154.771 1959.23,153.271 1953.5,152C 1949.5,150.133 1945.33,148.633 1941,147.5C 1938.6,148.602 1936.1,148.769 1933.5,148C 1934.17,147.667 1934.83,147.333 1935.5,147C 1926.49,145.415 1917.49,143.748 1908.5,142C 1906.92,141.293 1905.42,140.46 1904,139.5C 1901.26,140.61 1898.43,140.777 1895.5,140C 1895.83,139.667 1896.17,139.333 1896.5,139C 1868.5,134.773 1842.5,130.773 1818.5,127C 1789.14,123.813 1759.14,121.146 1728.5,119C 1621.12,113.853 1518.79,120.52 1421.5,139C 1422.17,139.333 1422.83,139.667 1423.5,140C 1409.9,141.283 1396.57,144.116 1383.5,148.5C 1382.56,148.392 1381.72,148.059 1381,147.5C 1376.67,148.633 1372.5,150.133 1368.5,152C 1363.5,153 1358.5,154 1353.5,155C 1355.6,155.556 1355.76,156.056 1354,156.5C 1353,156.167 1352,155.833 1351,155.5C 1348,156.918 1344.83,157.751 1341.5,158C 1340.83,158.667 1340.17,159.333 1339.5,160C 1335.21,161.178 1330.88,162.178 1326.5,163C 1327.89,163.889 1327.72,164.389 1326,164.5C 1325.13,164.265 1324.29,163.931 1323.5,163.5C 1316.86,167.074 1309.86,169.574 1302.5,171C 1302.83,171.333 1303.17,171.667 1303.5,172C 1302.1,172.595 1300.77,172.428 1299.5,171.5C 1292.69,174.601 1285.86,177.601 1279,180.5C 1278.59,180.043 1278.09,179.709 1277.5,179.5C 1271.05,181.982 1264.88,184.982 1259,188.5C 1258.67,188.167 1258.33,187.833 1258,187.5C 1251.9,189.751 1246.23,192.751 1241,196.5C 1239.25,195.701 1237.92,196.368 1237,198.5C 1235.95,197.483 1234.78,197.316 1233.5,198C 1230.3,200.364 1226.97,202.53 1223.5,204.5C 1222.91,204.291 1222.41,203.957 1222,203.5C 1189.05,219.726 1156.55,238.893 1124.5,261C 1116.79,267.714 1108.79,274.047 1100.5,280C 1114.79,281.668 1131.13,282.835 1149.5,283.5C 1151.03,283.006 1152.36,282.339 1153.5,281.5C 1164.04,274.937 1174.37,268.104 1184.5,261C 1190.18,258.389 1195.85,255.889 1201.5,253.5C 1201.5,252.5 1201.5,251.5 1201.5,250.5C 1208.76,248.906 1215.09,245.572 1220.5,240.5C 1221.09,240.709 1221.59,241.043 1222,241.5C 1224.94,239.615 1228.11,238.115 1231.5,237C 1231.17,236.667 1230.83,236.333 1230.5,236C 1238.01,233.343 1245.34,229.676 1252.5,225C 1256.92,223.957 1261.25,222.624 1265.5,221C 1265.17,220.667 1264.83,220.333 1264.5,220C 1268,218.932 1271.33,217.598 1274.5,216C 1273.3,215.346 1273.3,214.846 1274.5,214.5C 1275.77,215.428 1277.1,215.595 1278.5,215C 1306.2,202.843 1334.87,192.843 1364.5,185C 1363.37,183.984 1363.7,183.317 1365.5,183C 1375.69,181.252 1385.69,178.585 1395.5,175C 1405.77,172.757 1416.1,170.757 1426.5,169C 1425.83,168.667 1425.17,168.333 1424.5,168C 1438.42,165.027 1452.42,162.694 1466.5,161C 1466.17,160.667 1465.83,160.333 1465.5,160C 1469.5,159.667 1473.5,159.333 1477.5,159C 1477.17,158.667 1476.83,158.333 1476.5,158C 1491.26,156.328 1505.93,154.662 1520.5,153C 1520.17,152.667 1519.83,152.333 1519.5,152C 1533.37,150.408 1548.04,149.075 1563.5,148C 1605.11,145.583 1646.77,144.916 1688.5,146C 1716.85,148.053 1743.85,150.053 1769.5,152C 1769.17,152.333 1768.83,152.667 1768.5,153C 1784.53,154.617 1800.53,156.284 1816.5,158C 1815.83,158.333 1815.17,158.667 1814.5,159C 1819.17,159.333 1823.83,159.667 1828.5,160C 1828.17,160.333 1827.83,160.667 1827.5,161C 1870.59,167.63 1913.26,176.13 1955.5,186.5C 1960.01,186.743 1962.01,189.076 1961.5,193.5C 1953.23,192.325 1945.23,190.325 1937.5,187.5C 1935.63,187.946 1933.8,188.279 1932,188.5C 1931.5,188 1931,187.5 1930.5,187C 1927.5,186.667 1924.5,186.333 1921.5,186C 1920.83,185.333 1920.17,184.667 1919.5,184C 1912.2,182.666 1904.86,181.166 1897.5,179.5C 1894.56,180.575 1891.56,180.741 1888.5,180C 1888.83,179.667 1889.17,179.333 1889.5,179C 1885.17,178.667 1880.83,178.333 1876.5,178C 1870.8,177.079 1865.13,175.746 1859.5,174C 1848.67,172.395 1838.01,171.728 1827.5,172C 1828.17,171.667 1828.83,171.333 1829.5,171C 1815.27,169.306 1800.94,168.306 1786.5,168C 1784.61,167.027 1782.61,166.36 1780.5,166C 1766.46,165.755 1752.46,164.922 1738.5,163.5C 1707.62,164.361 1675.96,164.361 1643.5,163.5C 1629.2,164.852 1614.86,165.685 1600.5,166C 1598.29,166.17 1596.29,166.837 1594.5,168C 1580.61,168.504 1566.94,169.67 1553.5,171.5C 1544.24,172.485 1534.9,173.319 1525.5,174C 1520.2,175.721 1514.87,177.054 1509.5,178C 1505.5,178.333 1501.5,178.667 1497.5,179C 1500.12,179.906 1499.95,180.406 1497,180.5C 1494.69,180.12 1492.36,179.786 1490,179.5C 1481.65,181.064 1473.48,183.231 1465.5,186C 1456.82,187.832 1448.15,189.166 1439.5,190C 1429.75,194.023 1419.42,196.689 1408.5,198C 1399.51,201.669 1390.18,204.335 1380.5,206C 1321.97,224.166 1266.97,247.666 1215.5,276.5C 1210.76,279.588 1205.93,282.588 1201,285.5C 1200.67,285.167 1200.33,284.833 1200,284.5C 1199.41,285.483 1199.74,286.15 1201,286.5C 1202.81,287.078 1204.64,287.578 1206.5,288C 1216.17,288.333 1225.83,288.667 1235.5,289C 1234.83,289.333 1234.17,289.667 1233.5,290C 1240.5,290.667 1247.5,290.667 1254.5,290C 1253.66,288.334 1254.16,288.167 1256,289.5C 1262.78,285.979 1269.44,282.313 1276,278.5C 1277.61,279.622 1278.78,279.122 1279.5,277C 1289.59,273.951 1299.09,269.785 1308,264.5C 1311.84,264.985 1315.34,263.818 1318.5,261C 1324.68,258.485 1331.01,256.485 1337.5,255C 1340.16,254.205 1342.49,252.871 1344.5,251C 1364.84,243.861 1385.18,237.361 1405.5,231.5C 1407.53,231.662 1409.53,231.495 1411.5,231C 1417.54,228.329 1423.88,226.162 1430.5,224.5C 1440.63,223.268 1450.29,220.768 1459.5,217C 1476.26,215.144 1492.6,211.644 1508.5,206.5C 1511.44,207.575 1514.44,207.741 1517.5,207C 1527.13,205.35 1536.8,204.016 1546.5,203C 1546.17,202.667 1545.83,202.333 1545.5,202C 1604.69,195.007 1664.02,193.673 1723.5,198C 1727.22,198.62 1730.89,199.453 1734.5,200.5C 1734.71,201.086 1735.04,201.586 1735.5,202C 1734.33,203.167 1733.17,204.333 1732,205.5C 1710.56,204.474 1689.06,204.641 1667.5,206C 1636.51,209.307 1605.51,212.64 1574.5,216C 1569.37,216.8 1564.37,218.134 1559.5,220C 1544.57,221.047 1529.91,223.214 1515.5,226.5C 1447.8,239.849 1381.8,260.016 1317.5,287C 1312.92,290.123 1307.92,292.457 1302.5,294C 1416.56,303.227 1526.9,307.227 1633.5,306C 1630.5,305.667 1627.5,305.333 1624.5,305C 1691.11,304.205 1755.45,299.205 1817.5,290C 1816.83,289.667 1816.17,289.333 1815.5,289C 1820.17,288.667 1824.83,288.333 1829.5,288C 1846.58,284.07 1863.24,281.07 1879.5,279C 1880.33,278.085 1881.33,277.419 1882.5,277C 1892.78,274.849 1903.11,272.849 1913.5,271C 1916.68,269.25 1920.02,267.917 1923.5,267C 1930.1,265.35 1936.77,264.017 1943.5,263C 1944.17,262.333 1944.83,261.667 1945.5,261C 1949.6,259.266 1953.93,258.266 1958.5,258C 1958.17,257.667 1957.83,257.333 1957.5,257C 1964.85,256.745 1971.51,254.745 1977.5,251C 1982.64,249.169 1987.97,247.835 1993.5,247C 1997.82,244.211 2002.48,242.044 2007.5,240.5C 2008.09,240.709 2008.59,241.043 2009,241.5C 2016.86,238.755 2024.36,235.422 2031.5,231.5C 2035.54,230.813 2039.21,229.146 2042.5,226.5C 2043.8,227.718 2044.8,227.385 2045.5,225.5C 2050.4,223.895 2055.07,221.895 2059.5,219.5C 2060.82,222.893 2059.82,225.559 2056.5,227.5C 2049.99,230.01 2043.49,233.343 2037,237.5C 1980.67,264.518 1920.83,285.352 1857.5,300C 1857.83,300.333 1858.17,300.667 1858.5,301C 1853.13,301.403 1847.8,302.07 1842.5,303C 1841.33,303.419 1840.33,304.085 1839.5,305C 1834.04,306.723 1828.38,307.723 1822.5,308C 1822.83,308.333 1823.17,308.667 1823.5,309C 1812.97,309.221 1802.97,311.221 1793.5,315C 1779.81,316.941 1766.15,318.941 1752.5,321C 1751.67,321.915 1750.67,322.581 1749.5,323C 1721.69,326.433 1694.02,330.099 1666.5,334C 1667.5,334.333 1668.5,334.667 1669.5,335C 1668.83,335.167 1668.17,335.333 1667.5,335.5C 1662.87,334.447 1658.2,334.281 1653.5,335C 1646.9,336.163 1640.23,336.83 1633.5,337C 1631.91,337.862 1630.25,338.529 1628.5,339C 1614.83,340.643 1601.16,341.81 1587.5,342.5C 1556.14,343.988 1524.81,345.488 1493.5,347C 1490.96,348.092 1488.29,348.759 1485.5,349C 1438.93,349.391 1392.43,350.224 1346,351.5C 1318.39,349.679 1290.56,348.846 1262.5,349C 1260.62,348.784 1258.95,348.117 1257.5,347C 1227.18,345.839 1196.84,344.506 1166.5,343C 1124.12,342.144 1081.79,340.811 1039.5,339C 1034.47,338.552 1029.47,337.886 1024.5,337C 927.496,333.781 830.496,333.781 733.5,337C 730.211,337.882 726.877,338.548 723.5,339C 706.313,339.742 689.313,340.909 672.5,342.5C 655.747,343.387 639.081,344.887 622.5,347C 621.672,347.915 620.672,348.581 619.5,349C 554.233,355.591 491.9,372.924 432.5,401C 381.144,427.499 334.644,461.332 293,502.5C 292.667,502.167 292.333,501.833 292,501.5C 287.746,507.21 282.912,512.377 277.5,517C 276.207,517.49 274.873,517.657 273.5,517.5C 273.34,515.801 273.506,514.134 274,512.5C 277.172,509.657 279.672,506.324 281.5,502.5C 296.772,483.919 312.772,466.585 329.5,450.5C 349.859,431.424 371.193,414.091 393.5,398.5C 401.265,394.921 407.765,390.587 413,385.5C 413.333,385.833 413.667,386.167 414,386.5C 416.5,384.333 419,382.167 421.5,380C 433.785,373.713 445.452,367.213 456.5,360.5C 544.768,315.4 638.102,288.234 736.5,279C 738.392,278.027 740.392,277.36 742.5,277C 749.579,276.886 756.579,276.219 763.5,275C 772.167,274.667 780.833,274.333 789.5,274C 787.833,273.667 786.167,273.333 784.5,273C 848.5,272.333 912.5,272.333 976.5,273C 975.5,273.333 974.5,273.667 973.5,274C 1001.26,274.204 1028.93,275.204 1056.5,277C 1060.32,277.235 1063.99,278.068 1067.5,279.5C 1072.5,276.781 1076.83,273.281 1080.5,269C 1083.83,267 1087.17,265 1090.5,263C 1090.17,262.667 1089.83,262.333 1089.5,262C 1093.23,259.477 1096.9,256.977 1100.5,254.5C 1171.61,201.606 1246.27,161.773 1324.5,135C 1323.83,134.667 1323.17,134.333 1322.5,134C 1325.42,134.763 1327.75,134.097 1329.5,132C 1344.12,128.415 1358.45,124.082 1372.5,119C 1371.3,118.346 1371.3,117.846 1372.5,117.5C 1373.45,117.987 1374.45,118.32 1375.5,118.5C 1383.49,114.885 1391.83,112.218 1400.5,110.5C 1411.1,107.516 1421.77,104.849 1432.5,102.5C 1443.61,100.737 1454.61,98.4039 1465.5,95.5C 1480.13,94.0452 1494.47,91.5452 1508.5,88C 1512.83,87.6667 1517.17,87.3333 1521.5,87C 1520.11,86.1107 1520.28,85.6107 1522,85.5C 1524.29,86.0723 1526.62,86.4057 1529,86.5C 1538.51,85.2713 1548.01,84.1046 1557.5,83C 1615.82,81.4146 1674.15,81.0813 1732.5,82C 1753.33,83.3731 1774.16,84.8731 1795,86.5C 1797.89,86.453 1800.72,86.1196 1803.5,85.5C 1804.31,85.8076 1804.97,86.3076 1805.5,87C 1811.83,87.3333 1818.17,87.6667 1824.5,88C 1825.83,88.6667 1827.17,89.3333 1828.5,90C 1848.46,91.9981 1868.46,93.9981 1888.5,96C 1898.47,97.9273 1908.47,99.9273 1918.5,102C 1922.04,102.717 1925.54,102.55 1929,101.5C 1930.76,101.944 1930.6,102.444 1928.5,103C 1936.36,103.289 1944.02,104.289 1951.5,106C 1952.67,106.419 1953.67,107.085 1954.5,108C 1960.1,108.276 1965.6,109.109 1971,110.5C 1972.44,110.441 1973.77,110.108 1975,109.5C 1978.68,111.026 1982.52,112.193 1986.5,113C 1989.83,113.333 1993.17,113.667 1996.5,114C 1997.67,114.419 1998.67,115.085 1999.5,116C 2005.47,117.156 2011.47,117.989 2017.5,118.5 Z"/></g>
<g><path style="opacity:0.004" fill="#1e1819" d="M 1432.5,102.5 C 1431.83,101.167 1431.83,101.167 1432.5,102.5 Z"/></g>
<g><path style="opacity:0.004" fill="#1e1919" d="M 1400.5,110.5 C 1399.83,109.167 1399.83,109.167 1400.5,110.5 Z"/></g>
<g><path style="opacity:0.004" fill="#1e1919" d="M 2017.5,117.5 C 2018.83,118.167 2018.83,118.167 2017.5,117.5 Z"/></g>
<g><path style="opacity:0.004" fill="#1e1919" d="M 2055.5,126.5 C 2055.9,125.475 2056.56,125.308 2057.5,126C 2056.91,126.464 2056.24,126.631 2055.5,126.5 Z"/></g>
<g><path style="opacity:0.004" fill="#1e1919" d="M 1553.5,171.5 C 1554.83,172.167 1554.83,172.167 1553.5,171.5 Z"/></g>
<g><path style="opacity:0.004" fill="#1e1919" d="M 1447.5,189.5 C 1448.83,190.167 1448.83,190.167 1447.5,189.5 Z"/></g>
<g><path style="opacity:0.004" fill="#1f1919" d="M 2089.5,189.5 C 2089.1,190.525 2088.44,190.692 2087.5,190C 2088.09,189.536 2088.76,189.369 2089.5,189.5 Z"/></g>
<g><path style="opacity:0.004" fill="#1e1919" d="M 1696.5,206.5 C 1697.6,205.402 1698.93,205.235 1700.5,206C 1699.21,206.49 1697.87,206.657 1696.5,206.5 Z"/></g>
<g><path style="opacity:0.004" fill="#1f1919" d="M 2154.5,205.5 C 2153.83,206.167 2153.83,206.167 2154.5,205.5 Z"/></g>
<g><path style="opacity:0.004" fill="#1e1919" d="M 1604.5,213.5 C 1605.83,214.167 1605.83,214.167 1604.5,213.5 Z"/></g>
<g><path style="opacity:0.004" fill="#1e1919" d="M 1405.5,231.5 C 1404.83,230.167 1404.83,230.167 1405.5,231.5 Z"/></g>
<g><path style="opacity:0.004" fill="#1e1919" d="M 2031.5,231.5 C 2030.83,230.167 2030.83,230.167 2031.5,231.5 Z"/></g>
<g><path style="opacity:1" fill="#b11a1f" d="M 2437.5,236.5 C 2436.34,235.544 2435.17,234.544 2434,233.5C 2425.54,234.457 2417.04,234.79 2408.5,234.5C 2418,233.539 2427.66,232.872 2437.5,232.5C 2437.5,233.833 2437.5,235.167 2437.5,236.5 Z"/></g>
<g><path style="opacity:0.884" fill="#d61a21" d="M 2437.5,236.5 C 2438.41,238.657 2439.07,240.99 2439.5,243.5C 2439.2,247.79 2439.86,251.79 2441.5,255.5C 2441.85,259.684 2442.52,263.684 2443.5,267.5C 2444.05,274.153 2444.39,280.82 2444.5,287.5C 2443.83,288.167 2443.17,288.833 2442.5,289.5C 2434.88,292.113 2427.22,295.28 2419.5,299C 2405.73,303.212 2392.06,307.045 2378.5,310.5C 2367.32,313.977 2355.98,316.644 2344.5,318.5C 2331.32,321.951 2317.99,324.618 2304.5,326.5C 2297.53,327.308 2290.53,328.142 2283.5,329C 2282.67,329.915 2281.67,330.581 2280.5,331C 2263.92,332.998 2247.25,334.998 2230.5,337C 2229.17,337.667 2227.83,338.333 2226.5,339C 2202.81,341.066 2179.15,343.566 2155.5,346.5C 2155.85,344.459 2155.85,342.626 2155.5,341C 2164.26,338.601 2173.26,336.935 2182.5,336C 2221,324.979 2257,312.312 2290.5,298C 2290.17,297.667 2289.83,297.333 2289.5,297C 2291.5,296.667 2293.5,296.333 2295.5,296C 2299.56,293.425 2303.89,291.425 2308.5,290C 2307.3,289.346 2307.3,288.846 2308.5,288.5C 2309.17,288.833 2309.83,289.167 2310.5,289.5C 2327.35,280.748 2343.68,272.081 2359.5,263.5C 2374.6,254.779 2389.6,245.779 2404.5,236.5C 2404.38,235.893 2404.04,235.56 2403.5,235.5C 2404.92,234.549 2406.59,234.216 2408.5,234.5C 2417.04,234.79 2425.54,234.457 2434,233.5C 2435.17,234.544 2436.34,235.544 2437.5,236.5 Z"/></g>
<g><path style="opacity:1" fill="#8d1b1e" d="M 2439.5,243.5 C 2441.14,247.21 2441.8,251.21 2441.5,255.5C 2439.86,251.79 2439.2,247.79 2439.5,243.5 Z"/></g>
<g><path style="opacity:0.004" fill="#1e1919" d="M 1100.5,254.5 C 1099.83,253.167 1099.83,253.167 1100.5,254.5 Z"/></g>
<g><path style="opacity:0.004" fill="#d51a20" d="M 2359.5,263.5 C 2358.83,262.167 2358.83,262.167 2359.5,263.5 Z"/></g>
<g><path style="opacity:1" fill="#641a1c" d="M 2441.5,255.5 C 2443.25,259.183 2443.92,263.183 2443.5,267.5C 2442.52,263.684 2441.85,259.684 2441.5,255.5 Z"/></g>
<g><path style="opacity:0.004" fill="#1f181a" d="M 864.5,271.5 C 868.981,270.352 873.648,270.185 878.5,271C 873.845,271.499 869.179,271.666 864.5,271.5 Z"/></g>
<g><path style="opacity:0.004" fill="#1e1919" d="M 1215.5,276.5 C 1216.83,277.167 1216.83,277.167 1215.5,276.5 Z"/></g>
<g><path style="opacity:1" fill="#511a1b" d="M 2443.5,267.5 C 2444.94,271.406 2445.61,275.573 2445.5,280C 2445.5,282.69 2445.16,285.19 2444.5,287.5C 2444.39,280.82 2444.05,274.153 2443.5,267.5 Z"/></g>
<g><path style="opacity:0.004" fill="#1e1919" d="M 1153.5,281.5 C 1152.83,280.167 1152.83,280.167 1153.5,281.5 Z"/></g>
<g><path style="opacity:0.004" fill="#d51a21" d="M 2378.5,310.5 C 2379.24,310.369 2379.91,310.536 2380.5,311C 2379.56,311.692 2378.9,311.525 2378.5,310.5 Z"/></g>
<g><path style="opacity:0.004" fill="#1f1919" d="M 1773.5,318.5 C 1774.83,319.167 1774.83,319.167 1773.5,318.5 Z"/></g>
<g><path style="opacity:0.004" fill="#d41a20" d="M 2344.5,318.5 C 2345.24,318.369 2345.91,318.536 2346.5,319C 2345.56,319.692 2344.9,319.525 2344.5,318.5 Z"/></g>
<g><path style="opacity:0.004" fill="#d51a20" d="M 2304.5,326.5 C 2305.24,326.369 2305.91,326.536 2306.5,327C 2305.56,327.692 2304.9,327.525 2304.5,326.5 Z"/></g>
<g><path style="opacity:0.004" fill="#d41a20" d="M 2257.5,334.5 C 2258.83,335.167 2258.83,335.167 2257.5,334.5 Z"/></g>
<g><path style="opacity:0.004" fill="#1f1919" d="M 672.5,342.5 C 673.552,342.351 674.552,342.517 675.5,343C 674.251,343.74 673.251,343.573 672.5,342.5 Z"/></g>
<g><path style="opacity:0.004" fill="#1f1919" d="M 1126.5,343.5 C 1127.6,342.402 1128.93,342.235 1130.5,343C 1129.21,343.49 1127.87,343.657 1126.5,343.5 Z"/></g>
<g><path style="opacity:0.004" fill="#1f1919" d="M 1587.5,342.5 C 1588.55,342.351 1589.55,342.517 1590.5,343C 1589.25,343.74 1588.25,343.573 1587.5,342.5 Z"/></g>
<g><path style="opacity:0.004" fill="#d51a21" d="M 2197.5,342.5 C 2198.83,343.167 2198.83,343.167 2197.5,342.5 Z"/></g>
<g><path style="opacity:0.004" fill="#1f1919" d="M 1324.5,351.5 C 1327.98,350.357 1331.64,350.19 1335.5,351C 1331.85,351.499 1328.18,351.665 1324.5,351.5 Z"/></g>
<g><path style="opacity:0.004" fill="#1f181a" d="M 1337.5,351.5 C 1338.6,350.402 1339.93,350.235 1341.5,351C 1340.21,351.49 1338.87,351.657 1337.5,351.5 Z"/></g>
<g><path style="opacity:0.004" fill="#1f191a" d="M 1413.5,351.5 C 1418.98,350.348 1424.65,350.182 1430.5,351C 1424.84,351.499 1419.18,351.666 1413.5,351.5 Z"/></g>
<g><path style="opacity:0.854" fill="#d51a21" d="M 541.5,402.5 C 545.809,401.687 550.143,400.853 554.5,400C 561.193,398.199 567.693,396.032 574,393.5C 575.399,393.501 576.899,393.835 578.5,394.5C 590.864,390.994 603.364,387.994 616,385.5C 617.436,385.559 618.769,385.892 620,386.5C 634.668,384.218 649.001,381.218 663,377.5C 663.414,377.957 663.914,378.291 664.5,378.5C 681.495,377.026 698.495,375.526 715.5,374C 716.949,372.883 718.616,372.216 720.5,372C 727.833,371.667 735.167,371.333 742.5,371C 743.536,369.383 744.703,369.216 746,370.5C 822.502,367.532 899.002,368.032 975.5,372C 977.246,372.471 978.913,373.138 980.5,374C 1016.8,376.236 1053.14,378.236 1089.5,380C 1091.61,380.36 1093.61,381.027 1095.5,382C 1132.12,384.253 1168.46,385.586 1204.5,386C 1203.83,386.333 1203.17,386.667 1202.5,387C 1239.17,388.243 1275.84,389.909 1312.5,392C 1341.41,392.235 1370.25,393.069 1399,394.5C 1420.76,393.787 1442.59,393.787 1464.5,394.5C 1565,395.666 1665.67,395.833 1766.5,395C 1764.83,394.667 1763.17,394.333 1761.5,394C 1848.62,394.755 1936.78,391.922 2026,385.5C 2027.14,385.911 2028.31,386.244 2029.5,386.5C 2062.85,385.402 2096.18,383.902 2129.5,382C 2131.29,380.837 2133.29,380.17 2135.5,380C 2169.2,378.252 2202.87,376.252 2236.5,374C 2237.83,373.333 2239.17,372.667 2240.5,372C 2266.52,370.266 2292.52,368.266 2318.5,366C 2319.62,364.956 2320.96,364.29 2322.5,364C 2332.17,362.458 2341.84,361.291 2351.5,360.5C 2364.23,359.222 2376.9,357.889 2389.5,356.5C 2389.71,358.144 2389.38,359.644 2388.5,361C 2383.62,361.706 2378.95,363.04 2374.5,365C 2354.1,367.293 2333.77,369.793 2313.5,372.5C 2313.65,373.552 2313.48,374.552 2313,375.5C 2311.43,374.878 2309.76,374.544 2308,374.5C 2290.39,376.725 2272.89,379.559 2255.5,383C 2232.52,384.647 2210.52,387.313 2189.5,391C 2161.03,392.838 2134.2,395.672 2109,399.5C 2108.67,399.167 2108.33,398.833 2108,398.5C 2084.2,401.48 2060.37,403.647 2036.5,405C 2037.5,405.333 2038.5,405.667 2039.5,406C 2030.83,406.333 2022.17,406.667 2013.5,407C 2013.83,407.333 2014.17,407.667 2014.5,408C 1977.5,411.033 1941.16,413.366 1905.5,415C 1906.83,415.333 1908.17,415.667 1909.5,416C 1875.15,417.667 1840.81,419.334 1806.5,421C 1807.5,421.333 1808.5,421.667 1809.5,422C 1795.5,422.333 1781.5,422.667 1767.5,423C 1769.17,423.333 1770.83,423.667 1772.5,424C 1723.49,425.76 1674.49,427.427 1625.5,429C 1626.17,429.333 1626.83,429.667 1627.5,430C 1604.83,430.333 1582.17,430.667 1559.5,431C 1572.81,431.83 1572.81,432.33 1559.5,432.5C 1544.01,432.006 1528.51,431.673 1513,431.5C 1447,435.475 1381,435.475 1315,431.5C 1299.92,431.46 1284.92,431.793 1270,432.5C 1258.86,432.278 1259.03,431.778 1270.5,431C 1252.5,430.667 1234.5,430.333 1216.5,430C 1217.17,429.667 1217.83,429.333 1218.5,429C 1181.19,427.459 1143.86,425.792 1106.5,424C 1107.83,423.667 1109.17,423.333 1110.5,423C 1099.5,422.667 1088.5,422.333 1077.5,422C 1078.5,421.667 1079.5,421.333 1080.5,421C 1051.53,419.251 1022.53,417.584 993.5,416C 994.833,415.667 996.167,415.333 997.5,415C 960.66,411.897 922.326,409.563 882.5,408C 882.833,407.667 883.167,407.333 883.5,407C 871.167,406.667 858.833,406.333 846.5,406C 847.5,405.667 848.5,405.333 849.5,405C 819.109,404.594 788.775,403.761 758.5,402.5C 716.496,402.994 676.496,405.16 638.5,409C 610.914,412.738 582.914,417.405 554.5,423C 555.167,423.333 555.833,423.667 556.5,424C 550.463,424.791 544.463,425.791 538.5,427C 533.752,429.428 528.085,431.261 521.5,432.5C 519.234,431.443 517.234,431.943 515.5,434C 508.901,435.661 502.234,437.328 495.5,439C 496.696,439.654 496.696,440.154 495.5,440.5C 494.232,439.572 492.899,439.405 491.5,440C 487.031,442.282 482.365,443.948 477.5,445C 477.833,445.333 478.167,445.667 478.5,446C 471.768,446.174 465.768,448.174 460.5,452C 447.43,455.718 434.763,460.218 422.5,465.5C 420.488,467.455 418.154,468.955 415.5,470C 407.123,471.774 399.623,475.274 393,480.5C 392.586,480.043 392.086,479.709 391.5,479.5C 378.603,485.708 365.936,492.208 353.5,499C 348.183,502.006 346.683,500.839 349,495.5C 353.136,491.532 357.636,488.198 362.5,485.5C 362.351,484.448 362.517,483.448 363,482.5C 363.333,482.833 363.667,483.167 364,483.5C 396.395,458.458 432.061,439.458 471,426.5C 471.833,425.667 472.667,424.833 473.5,424C 479.462,422.652 484.962,420.485 490,417.5C 491,417.833 492,418.167 493,418.5C 496.039,417.359 498.873,415.859 501.5,414C 505.5,413 509.5,412 513.5,411C 513.167,410.667 512.833,410.333 512.5,410C 514.112,409.28 515.612,409.446 517,410.5C 520.531,409.61 523.697,408.11 526.5,406C 531.635,404.955 536.635,403.788 541.5,402.5 Z"/></g>
<g><path style="opacity:0.004" fill="#1e1919" d="M 456.5,360.5 C 455.833,359.167 455.833,359.167 456.5,360.5 Z"/></g>
<g><path style="opacity:0.004" fill="#d51a20" d="M 2351.5,360.5 C 2350.83,359.167 2350.83,359.167 2351.5,360.5 Z"/></g>
<g><path style="opacity:0.004" fill="#d51a21" d="M 777.5,368.5 C 778.251,367.427 779.251,367.26 780.5,368C 779.552,368.483 778.552,368.649 777.5,368.5 Z"/></g>
<g><path style="opacity:0.004" fill="#d51a20" d="M 906.5,368.5 C 907.601,367.402 908.934,367.235 910.5,368C 909.207,368.49 907.873,368.657 906.5,368.5 Z"/></g>
<g><path style="opacity:0.004" fill="#d51a20" d="M 1031.5,375.5 C 1032.83,376.167 1032.83,376.167 1031.5,375.5 Z"/></g>
<g><path style="opacity:0.004" fill="#d41a20" d="M 2187.5,375.5 C 2188.83,376.167 2188.83,376.167 2187.5,375.5 Z"/></g>
<g><path style="opacity:0.004" fill="#d61a21" d="M 2021.5,386.5 C 2021.9,385.475 2022.56,385.308 2023.5,386C 2022.91,386.464 2022.24,386.631 2021.5,386.5 Z"/></g>
<g><path style="opacity:0.004" fill="#d51a21" d="M 1464.5,394.5 C 1466.97,393.366 1469.63,393.199 1472.5,394C 1469.85,394.497 1467.19,394.664 1464.5,394.5 Z"/></g>
<g><path style="opacity:0.004" fill="#d51a21" d="M 1473.5,394.5 C 1474.6,393.402 1475.93,393.235 1477.5,394C 1476.21,394.49 1474.87,394.657 1473.5,394.5 Z"/></g>
<g><path style="opacity:0.004" fill="#d51a21" d="M 1750.5,394.5 C 1751.95,393.387 1753.61,393.22 1755.5,394C 1753.87,394.494 1752.2,394.66 1750.5,394.5 Z"/></g>
<g><path style="opacity:0.004" fill="#d61a21" d="M 1756.5,394.5 C 1757.6,393.402 1758.93,393.235 1760.5,394C 1759.21,394.49 1757.87,394.657 1756.5,394.5 Z"/></g>
<g><path style="opacity:0.004" fill="#d41a20" d="M 541.5,402.5 C 540.833,401.167 540.833,401.167 541.5,402.5 Z"/></g>
<g><path style="opacity:0.004" fill="#d51a20" d="M 1213.5,430.5 C 1213.9,429.475 1214.56,429.308 1215.5,430C 1214.91,430.464 1214.24,430.631 1213.5,430.5 Z"/></g>
<g><path style="opacity:0.004" fill="#1e1919" d="M 329.5,450.5 C 328.833,449.167 328.833,449.167 329.5,450.5 Z"/></g>
<g><path style="opacity:0.004" fill="#d41a20" d="M 346.5,496.5 C 347.833,497.167 347.833,497.167 346.5,496.5 Z"/></g>
<g><path style="opacity:0.949" fill="#221f1f" d="M 958.5,605.5 C 961.909,609.416 964.575,613.749 966.5,618.5C 974.551,630.725 982.551,643.392 990.5,656.5C 994.382,662.221 997.882,668.221 1001,674.5C 1003.27,676.449 1004.93,678.782 1006,681.5C 1007.67,680.66 1007.83,681.16 1006.5,683C 1011.49,688.643 1015.49,694.976 1018.5,702C 1019.67,703.839 1021.17,705.339 1023,706.5C 1024.67,710.969 1026.5,715.303 1028.5,719.5C 1029.5,719.5 1030.5,719.5 1031.5,719.5C 1033.22,723.819 1035.06,728.153 1037,732.5C 1037.67,731.167 1038.33,731.167 1039,732.5C 1043.98,740.657 1048.65,748.991 1053,757.5C 1053.33,757.167 1053.67,756.833 1054,756.5C 1056.8,763.132 1060.8,769.799 1066,776.5C 1067.41,778.652 1068.25,780.986 1068.5,783.5C 1031.83,783.667 995.165,783.5 958.5,783C 954.012,776.501 949.679,770.001 945.5,763.5C 940.129,754.738 934.796,746.071 929.5,737.5C 916.837,716.561 903.67,695.895 890,675.5C 880.953,691.622 871.453,707.289 861.5,722.5C 854.068,734.731 846.235,746.731 838,758.5C 836.939,761.622 835.606,764.622 834,767.5C 833.333,768.833 832.667,768.833 832,767.5C 829.739,772.975 826.906,778.142 823.5,783C 786.477,783.192 749.477,783.692 712.5,784.5C 712.201,782.396 712.534,780.396 713.5,778.5C 716.628,775.021 718.961,771.021 720.5,766.5C 721.76,765.618 722.926,764.618 724,763.5C 738.247,738.932 752.413,715.932 766.5,694.5C 780.59,672.784 794.423,650.451 808,627.5C 808.333,627.833 808.667,628.167 809,628.5C 810.607,622.834 813.274,618.5 817,615.5C 822.627,604.259 829.294,593.592 837,583.5C 838.667,579.833 840.333,576.167 842,572.5C 842.333,572.833 842.667,573.167 843,573.5C 845.3,569.187 847.633,564.853 850,560.5C 850.333,560.833 850.667,561.167 851,561.5C 855.44,552.98 860.107,544.646 865,536.5C 869.342,530.652 873.508,524.652 877.5,518.5C 879.477,513.493 882.644,508.493 887,503.5C 887.483,502.552 887.649,501.552 887.5,500.5C 889.199,500.34 890.866,500.506 892.5,501C 914.83,535.981 936.83,570.815 958.5,605.5 Z"/></g>
<g><path style="opacity:0.95" fill="#ec1b23" d="M 2116.5,776.5 C 2118.85,778.213 2119.85,780.547 2119.5,783.5C 2082.83,783.833 2046.16,783.5 2009.5,782.5C 2008.15,781.476 2007.48,780.143 2007.5,778.5C 2006.5,778.5 2005.5,778.5 2004.5,778.5C 2004.66,777.127 2004.49,775.793 2004,774.5C 2002.34,771.515 2000.67,768.515 1999,765.5C 1998.67,765.833 1998.33,766.167 1998,766.5C 1995.91,761.327 1993.58,756.994 1991,753.5C 1990.67,753.833 1990.33,754.167 1990,754.5C 1988.33,749.497 1986,744.831 1983,740.5C 1982.67,740.833 1982.33,741.167 1982,741.5C 1980.12,736.615 1977.78,731.948 1975,727.5C 1974.67,727.833 1974.33,728.167 1974,728.5C 1971.65,723.797 1969.32,719.13 1967,714.5C 1966.67,714.833 1966.33,715.167 1966,715.5C 1963.4,711.646 1961.07,706.98 1959,701.5C 1958.67,701.833 1958.33,702.167 1958,702.5C 1957.67,701.167 1957.33,699.833 1957,698.5C 1956.67,698.833 1956.33,699.167 1956,699.5C 1951.88,691.692 1947.05,683.692 1941.5,675.5C 1923.48,703.821 1906.48,731.154 1890.5,757.5C 1884.67,765.822 1879.34,774.488 1874.5,783.5C 1838.12,783.173 1801.79,783.507 1765.5,784.5C 1761.5,781.452 1762,778.785 1767,776.5C 1768.07,773.758 1769.57,771.258 1771.5,769C 1770.17,767.16 1770.33,766.66 1772,767.5C 1785.59,745.957 1798.76,724.957 1811.5,704.5C 1814.58,700.223 1817.08,695.556 1819,690.5C 1819.33,690.833 1819.67,691.167 1820,691.5C 1824.79,682.103 1829.96,673.769 1835.5,666.5C 1868.53,613.841 1900.87,562.175 1932.5,511.5C 1934.43,507.841 1936.76,504.341 1939.5,501C 1941.11,500.28 1942.61,500.446 1944,501.5C 2000.65,593.411 2058.15,685.077 2116.5,776.5 Z"/></g>
<g><path style="opacity:0.004" fill="#1e1919" d="M 281.5,502.5 C 280.833,501.167 280.833,501.167 281.5,502.5 Z"/></g>
<g><path style="opacity:0.004" fill="#ec1b23" d="M 1932.5,511.5 C 1931.83,510.167 1931.83,510.167 1932.5,511.5 Z"/></g>
<g><path style="opacity:0.944" fill="#221f1f" d="M 545.5,565.5 C 548.29,569.794 551.29,573.961 554.5,578C 554.167,578.333 553.833,578.667 553.5,579C 555.368,582.343 557.368,585.51 559.5,588.5C 563.423,598.879 566.923,609.212 570,619.5C 572,640.167 572,660.833 570,681.5C 566.28,692.236 563.113,702.903 560.5,713.5C 559.5,713.5 558.5,713.5 557.5,713.5C 556.713,716.859 555.38,720.025 553.5,723C 553.833,723.333 554.167,723.667 554.5,724C 548.098,732.316 541.431,740.483 534.5,748.5C 513.196,767.491 488.863,778.991 461.5,783C 406.501,783.5 351.501,783.667 296.5,783.5C 296.5,727.167 296.5,670.833 296.5,614.5C 326.167,614.5 355.833,614.5 385.5,614.5C 385.5,644.833 385.5,675.167 385.5,705.5C 404.17,705.667 422.836,705.5 441.5,705C 447.387,704.192 453.053,702.526 458.5,700C 460.707,697.295 463.374,695.129 466.5,693.5C 474.395,683.561 478.895,672.228 480,659.5C 480.667,652.5 480.667,645.5 480,638.5C 479.077,619.759 469.91,607.093 452.5,600.5C 450.902,601.485 449.235,601.651 447.5,601C 447.833,600.667 448.167,600.333 448.5,600C 398.833,599.667 349.167,599.333 299.5,599C 298.667,598.167 297.833,597.333 297,596.5C 296.172,570.261 296.339,544.094 297.5,518C 299.355,517.578 301.189,517.078 303,516.5C 349.827,517.831 396.66,517.831 443.5,516.5C 451.47,516.66 459.137,518.16 466.5,521C 498.781,525.484 525.114,540.317 545.5,565.5 Z"/></g>
<g><path style="opacity:0.929" fill="#221f1f" d="M 607.5,516.5 C 635.532,516.192 663.532,516.525 691.5,517.5C 692.49,606.145 692.823,694.811 692.5,783.5C 662.543,783.53 632.709,783.53 603,783.5C 602.167,695.165 602.333,606.831 603.5,518.5C 605.026,518.006 606.359,517.339 607.5,516.5 Z"/></g>
<g><path style="opacity:0.945" fill="#ec1b23" d="M 1495.5,723.5 C 1493.87,719.479 1491.71,715.812 1489,712.5C 1487.07,704.754 1484.4,697.421 1481,690.5C 1476.98,666.911 1476.48,643.244 1479.5,619.5C 1480.72,611.682 1483.22,604.349 1487,597.5C 1487.49,596.207 1487.66,594.873 1487.5,593.5C 1489.43,588.082 1492.1,583.082 1495.5,578.5C 1513.42,550.083 1538.42,531.75 1570.5,523.5C 1582.22,520.423 1594.05,518.09 1606,516.5C 1654.76,517.331 1703.6,517.831 1752.5,518C 1753.17,519.333 1753.83,520.667 1754.5,522C 1753.83,547 1753.17,572 1752.5,597C 1751.38,597.249 1750.38,597.749 1749.5,598.5C 1699.84,599.333 1650.17,599.833 1600.5,600C 1601.71,601.018 1601.37,601.518 1599.5,601.5C 1598.56,601.392 1597.72,601.059 1597,600.5C 1592.02,602.141 1587.52,604.641 1583.5,608C 1581.33,611.004 1578.99,613.837 1576.5,616.5C 1574.74,624.115 1572.24,631.448 1569,638.5C 1567.2,649.766 1568.7,660.433 1573.5,670.5C 1573.33,674.502 1574.16,678.502 1576,682.5C 1578.33,685.833 1580.67,689.167 1583,692.5C 1588.35,698.851 1595.19,702.018 1603.5,702C 1602.17,702.333 1600.83,702.667 1599.5,703C 1602.96,703.18 1606.29,703.847 1609.5,705C 1657.5,705.5 1705.5,705.667 1753.5,705.5C 1753.56,731.4 1753.56,757.4 1753.5,783.5C 1698.17,783.667 1642.83,783.5 1587.5,783C 1578.55,780.493 1570.22,778.993 1562.5,778.5C 1562.5,777.5 1562.5,776.5 1562.5,775.5C 1556.24,774.482 1550.24,772.649 1544.5,770C 1535.51,764.502 1526.84,758.502 1518.5,752C 1509,743.698 1501.33,734.198 1495.5,723.5 Z"/></g>
<g><path style="opacity:0.94" fill="#ec1b23" d="M 2398.5,669.5 C 2386.54,680.039 2373.54,687.372 2359.5,691.5C 2378.27,715.566 2397.6,740.566 2417.5,766.5C 2421.18,771.007 2425.01,775.341 2429,779.5C 2429.81,781.902 2429.65,784.235 2428.5,786.5C 2395.88,785.674 2363.21,785.174 2330.5,785C 2326.6,783.421 2323.26,781.088 2320.5,778C 2321.45,777.282 2321.62,776.449 2321,775.5C 2289.43,731.118 2258.77,687.118 2229,643.5C 2228.67,690.5 2228.33,737.5 2228,784.5C 2214.24,785.162 2200.41,785.496 2186.5,785.5C 2170.55,785.62 2154.89,785.12 2139.5,784C 2140.02,783.439 2140.36,782.772 2140.5,782C 2139.67,694.449 2139.17,606.949 2139,519.5C 2141.03,517.903 2143.36,516.903 2146,516.5C 2202.16,517.831 2258.33,517.831 2314.5,516.5C 2320.47,517.248 2326.47,517.748 2332.5,518C 2334.94,518.853 2337.27,519.853 2339.5,521C 2373.96,524.204 2399.13,539.704 2415,567.5C 2417.14,573.571 2419.14,579.571 2421,585.5C 2421.67,599.833 2421.67,614.167 2421,628.5C 2418.04,638.034 2414.54,646.701 2410.5,654.5C 2407.18,660.145 2403.18,665.145 2398.5,669.5 Z M 2228.5,599.5 C 2255.84,599.333 2283.17,599.5 2310.5,600C 2310.17,600.333 2309.83,600.667 2309.5,601C 2317.49,600.411 2323.82,603.577 2328.5,610.5C 2329.06,614.941 2329.22,619.274 2329,623.5C 2325.14,630.351 2319.31,634.517 2311.5,636C 2283.78,635.846 2256.28,636.679 2229,638.5C 2228.5,625.504 2228.33,612.504 2228.5,599.5 Z"/></g>
<g><path style="opacity:0.943" fill="#221f1f" d="M 1082.5,633.5 C 1082.69,630.173 1081.86,626.84 1080,623.5C 1079.33,613.5 1079.33,603.5 1080,593.5C 1081.69,589.779 1082.52,586.113 1082.5,582.5C 1087.66,563.936 1098.32,548.103 1114.5,535C 1122.74,531.222 1130.74,527.056 1138.5,522.5C 1141.25,523.853 1143.91,523.686 1146.5,522C 1211.17,521.5 1275.83,521.333 1340.5,521.5C 1340.83,547.408 1340.49,573.241 1339.5,599C 1283.83,599.167 1228.16,599.667 1172.5,600.5C 1163.23,604.721 1163.23,609.054 1172.5,613.5C 1214.83,614.333 1257.16,614.833 1299.5,615C 1326.08,620.908 1343.91,636.741 1353,662.5C 1353.33,662.167 1353.67,661.833 1354,661.5C 1354.24,666.345 1355.24,671.011 1357,675.5C 1357.91,690.213 1357.58,704.88 1356,719.5C 1355.67,719.167 1355.33,718.833 1355,718.5C 1354.67,722.5 1354.33,726.5 1354,730.5C 1353.67,729.833 1353.33,729.167 1353,728.5C 1350.64,735.206 1348.31,741.873 1346,748.5C 1345.67,747.833 1345.33,747.167 1345,746.5C 1342.15,752.876 1338.32,758.543 1333.5,763.5C 1317.16,778.488 1297.83,785.322 1275.5,784C 1275.83,784.333 1276.17,784.667 1276.5,785C 1216.83,785.667 1157.17,785.667 1097.5,785C 1096.44,783.812 1095.1,783.312 1093.5,783.5C 1093.17,757.592 1093.51,731.759 1094.5,706C 1151.17,705.667 1207.83,705.333 1264.5,705C 1266.9,703.982 1269.23,702.815 1271.5,701.5C 1272.83,698.5 1272.83,695.5 1271.5,692.5C 1270.5,692 1269.5,691.5 1268.5,691C 1229.83,690.667 1191.17,690.333 1152.5,690C 1153.5,689.667 1154.5,689.333 1155.5,689C 1126.09,687.379 1103.92,674.546 1089,650.5C 1086.74,644.006 1084.57,638.34 1082.5,633.5 Z"/></g>
<g><path style="opacity:0.004" fill="#221f1f" d="M 517.5,539.5 C 517.897,538.475 518.563,538.308 519.5,539C 518.906,539.464 518.239,539.631 517.5,539.5 Z"/></g>
<g><path style="opacity:0.004" fill="#221f1f" d="M 545.5,564.5 C 546.833,565.167 546.833,565.167 545.5,564.5 Z"/></g>
<g><path style="opacity:0.004" fill="#ec1b23" d="M 1495.5,578.5 C 1494.83,577.167 1494.83,577.167 1495.5,578.5 Z"/></g>
<g><path style="opacity:0.004" fill="#221f1f" d="M 1082.5,582.5 C 1081.47,582.103 1081.31,581.437 1082,580.5C 1082.46,581.094 1082.63,581.761 1082.5,582.5 Z"/></g>
<g><path style="opacity:0.004" fill="#ec1b23" d="M 2422.5,588.5 C 2423.83,589.167 2423.83,589.167 2422.5,588.5 Z"/></g>
<g><path style="opacity:0.004" fill="#ec1b23" d="M 1487.5,593.5 C 1486.83,592.167 1486.83,592.167 1487.5,593.5 Z"/></g>
<g><path style="opacity:0.004" fill="#ec1b23" d="M 2422.5,596.5 C 2423.62,598.288 2423.79,600.288 2423,602.5C 2422.5,600.527 2422.34,598.527 2422.5,596.5 Z"/></g>
<g><path style="opacity:0.004" fill="#221f1f" d="M 958.5,604.5 C 959.833,605.167 959.833,605.167 958.5,604.5 Z"/></g>
<g><path style="opacity:0.004" fill="#ec1b23" d="M 2422.5,609.5 C 2423.63,611.628 2423.8,613.961 2423,616.5C 2422.5,614.19 2422.34,611.857 2422.5,609.5 Z"/></g>
<g><path style="opacity:0.004" fill="#221f1f" d="M 966.5,617.5 C 967.833,618.167 967.833,618.167 966.5,617.5 Z"/></g>
<g><path style="opacity:0.004" fill="#ec1b23" d="M 1479.5,619.5 C 1478.47,619.103 1478.31,618.437 1479,617.5C 1479.46,618.094 1479.63,618.761 1479.5,619.5 Z"/></g>
<g><path style="opacity:0.004" fill="#ec1b23" d="M 2422.5,619.5 C 2423.57,620.251 2423.74,621.251 2423,622.5C 2422.52,621.552 2422.35,620.552 2422.5,619.5 Z"/></g>
<g><path style="opacity:0.004" fill="#221f1f" d="M 475.5,624.5 C 476.833,625.167 476.833,625.167 475.5,624.5 Z"/></g>
<g><path style="opacity:0.004" fill="#221f1f" d="M 1082.5,633.5 C 1082.63,634.239 1082.46,634.906 1082,635.5C 1081.31,634.563 1081.47,633.897 1082.5,633.5 Z"/></g>
<g><path style="opacity:0.004" fill="#221f1f" d="M 990.5,655.5 C 991.833,656.167 991.833,656.167 990.5,655.5 Z"/></g>
<g><path style="opacity:0.004" fill="#ec1b23" d="M 1835.5,666.5 C 1834.83,665.167 1834.83,665.167 1835.5,666.5 Z"/></g>
<g><path style="opacity:0.004" fill="#ec1b23" d="M 2398.5,669.5 C 2399.83,670.167 2399.83,670.167 2398.5,669.5 Z"/></g>
<g><path style="opacity:0.004" fill="#ec1b23" d="M 1947.5,686.5 C 1948.83,687.167 1948.83,687.167 1947.5,686.5 Z"/></g>
<g><path style="opacity:0.004" fill="#221f1f" d="M 766.5,694.5 C 765.833,693.167 765.833,693.167 766.5,694.5 Z"/></g>
<g><path style="opacity:0.004" fill="#221f1f" d="M 448.5,702.5 C 448.897,701.475 449.563,701.308 450.5,702C 449.906,702.464 449.239,702.631 448.5,702.5 Z"/></g>
<g><path style="opacity:0.004" fill="#ec1b23" d="M 1811.5,704.5 C 1810.83,703.167 1810.83,703.167 1811.5,704.5 Z"/></g>
<g><path style="opacity:0.004" fill="#221f1f" d="M 861.5,722.5 C 862.833,723.167 862.833,723.167 861.5,722.5 Z"/></g>
<g><path style="opacity:0.004" fill="#ec1b23" d="M 1495.5,723.5 C 1494.83,724.167 1494.83,724.167 1495.5,723.5 Z"/></g>
<g><path style="opacity:0.004" fill="#221f1f" d="M 929.5,737.5 C 928.833,738.167 928.833,738.167 929.5,737.5 Z"/></g>
<g><path style="opacity:0.004" fill="#ec1b23" d="M 1890.5,757.5 C 1891.83,758.167 1891.83,758.167 1890.5,757.5 Z"/></g>
<g><path style="opacity:0.004" fill="#221f1f" d="M 945.5,763.5 C 944.833,764.167 944.833,764.167 945.5,763.5 Z"/></g>
<g><path style="opacity:0.004" fill="#ec1b23" d="M 2116.5,775.5 C 2117.83,776.167 2117.83,776.167 2116.5,775.5 Z"/></g>
<g><path style="opacity:0.004" fill="#221f1f" d="M 481.5,779.5 C 482.833,780.167 482.833,780.167 481.5,779.5 Z"/></g>
<g><path style="opacity:0.004" fill="#221f1f" d="M 1309.5,780.5 C 1309.9,779.475 1310.56,779.308 1311.5,780C 1310.91,780.464 1310.24,780.631 1309.5,780.5 Z"/></g>
</svg>
